<?xml version="1.0" encoding="UTF-8"?> <svg xmlns="http://www.w3.org/2000/svg" viewBox="0 0 550.63 99.33"> <defs> <style>.cls-1{fill:#7cc8c4;}.cls-2,.cls-3,.cls-6,.cls-7{fill:none;}.cls-2,.cls-3,.cls-5{stroke:#25b4b2;}.cls-2,.cls-3,.cls-4,.cls-5,.cls-6,.cls-7{stroke-miterlimit:10;}.cls-2,.cls-6{stroke-width:4px;}.cls-3,.cls-5,.cls-7{stroke-width:1.5px;}.cls-4{fill:#0c8380;stroke:#fefefe;stroke-width:0.5px;}.cls-5{fill:#25b4b2;}.cls-6,.cls-7{stroke:#7cc8c4;}.cls-8,.cls-9{fill:#fefefe;}.cls-8{fill-opacity:0.36;}</style> </defs> <g id="Текст"> <g id="Слой_1-2" data-name="Слой 1-2"> <path class="cls-1" d="M118.5,73.16V31.59a5.81,5.81,0,0,1,1.85-4.44,6.07,6.07,0,0,1,4.34-1.74h29a1.83,1.83,0,0,1,1.85,1.79v7.09a1.54,1.54,0,0,1-.5,1.21,1.88,1.88,0,0,1-1.35.5H127.46a3.62,3.62,0,0,1,2.79,1.2,3.84,3.84,0,0,1,1.11,2.66v3a2.43,2.43,0,0,0,.54,1.49,1.87,1.87,0,0,0,1.57.69h15.47a1.8,1.8,0,0,1,1.85,1.76v6.47a1.81,1.81,0,0,1-.53,1.29,1.78,1.78,0,0,1-1.29.54H127.46a3.78,3.78,0,0,1,2.79,1.17,3.52,3.52,0,0,1,1.13,2.58v3.34a2.37,2.37,0,0,0,.57,1.5,1.93,1.93,0,0,0,1.52.69h20.78a1.62,1.62,0,0,1,1.84,1.38,1.24,1.24,0,0,1,0,.47v7a1.66,1.66,0,0,1-.52,1.29,2,2,0,0,1-1.29.46h-34a1.81,1.81,0,0,1-1.78-1.78Zm41.72,1.51a1.82,1.82,0,0,1-.36-1.71l16.49-45.35a2.84,2.84,0,0,1,2.84-2.06h11a2.85,2.85,0,0,1,2.85,2.06L209.54,73a1.75,1.75,0,0,1,.07.64,1.58,1.58,0,0,1-1.49,1.5H199a2.38,2.38,0,0,1-2.42-1.57l-3.69-10a40.69,40.69,0,0,1-5.16,1.64,48.38,48.38,0,0,1-5.08,1c-1.64.21-3.16.35-4.58.42s-2.66.11-3.7.11h-1.74a5.45,5.45,0,0,1-1.07-.08,2.9,2.9,0,0,1,2.17,1.39,3,3,0,0,1,.18,2.86l-1,2.7a2.38,2.38,0,0,1-2.42,1.57h-9.17A1.85,1.85,0,0,1,160.22,74.67Zm18.05-18.19c1.32-.1,2.7-.27,4.12-.51a37,37,0,0,0,3.87-.81,17.62,17.62,0,0,0,3.87-1.53L184.65,38l-6.38,18.46ZM255.52,60a13.11,13.11,0,0,1-2,7.36,15.14,15.14,0,0,1-5.12,4.82,23.3,23.3,0,0,1-7,2.63,35.46,35.46,0,0,1-7.47.82,42.55,42.55,0,0,1-5.16-.32,25.94,25.94,0,0,1-5.22-1.17,22.5,22.5,0,0,1-4.76-2.24A13.44,13.44,0,0,1,215,68.42a11.62,11.62,0,0,1-2.63-7,1.47,1.47,0,0,1,.43-1.07,1.88,1.88,0,0,1,1.14-.42h9.38a3.07,3.07,0,0,1,1.46.28,3.93,3.93,0,0,1,1.07,1,6.66,6.66,0,0,0,3.45,3.1A13.16,13.16,0,0,0,234,65a19.56,19.56,0,0,0,2.42-.18,11.46,11.46,0,0,0,2.58-.64A5.83,5.83,0,0,0,241,62.93a3.09,3.09,0,0,0,.85-2.28,3,3,0,0,0-1.51-2.74,14.79,14.79,0,0,0-3-1.39c-.75-.24-1.69-.5-2.8-.78s-2.41-.59-3.87-.93a53.22,53.22,0,0,1-6.35-1.62,19.86,19.86,0,0,1-5.44-2.69,13.26,13.26,0,0,1-3.83-4.3,13,13,0,0,1-1.46-6.45,12.76,12.76,0,0,1,1.83-6.92,14.9,14.9,0,0,1,4.66-4.69,20.33,20.33,0,0,1,6.35-2.63,30.63,30.63,0,0,1,7-.81,29.16,29.16,0,0,1,4.94.42,23.74,23.74,0,0,1,4.88,1.36,20.36,20.36,0,0,1,4.36,2.34,16.6,16.6,0,0,1,3.59,3.41,11.33,11.33,0,0,1,2.58,6.33,2,2,0,0,1-.43,1.13,1.45,1.45,0,0,1-1.06.43h-9.92A2.75,2.75,0,0,1,240,38.83a3.52,3.52,0,0,0-1-1.67,5.36,5.36,0,0,0-1.67-1.07,9.3,9.3,0,0,0-1.93-.57,11.47,11.47,0,0,0-1.94-.17,15.57,15.57,0,0,0-2.16.14,5.86,5.86,0,0,0-2,.6,4.2,4.2,0,0,0-1.49,1.29,3.45,3.45,0,0,0-.6,2.09,3.67,3.67,0,0,0,2.13,3.27,29.59,29.59,0,0,0,7.91,2.35A66.53,66.53,0,0,1,244,46.58a22.13,22.13,0,0,1,5.87,2.58A12,12,0,0,1,255.52,60Zm18.26,13.21V60.58a9.92,9.92,0,0,0-.28-2.3,8.22,8.22,0,0,0-.72-1.94L257.43,27.75a1.52,1.52,0,0,1-.18-.78,1.42,1.42,0,0,1,.46-1,1.45,1.45,0,0,1,1-.46h9.31a3.25,3.25,0,0,1,1.53.39,2.13,2.13,0,0,1,1,1.18c1.72,3.07,3.26,5.85,4.62,8.31.8,1.52,1.45,2.71,1.93,3.59s.95,1.69,1.35,2.45.76,1.39,1.07,1.94.49.83.53.92a.44.44,0,0,0,.36.22.29.29,0,0,0,.28-.22l.54-1,1.1-2c.45-.8,1-1.73,1.53-2.76l1.73-3.14q2.06-3.72,4.62-8.32a2.86,2.86,0,0,1,2.57-1.57h9.31A1.64,1.64,0,0,1,303.66,27a1.55,1.55,0,0,1-.21.78q-4.15,7.68-7.52,13.79-2,3.76-3.16,5.93c-.79,1.45-1.51,2.8-2.18,4.05l-1.7,3.22c-.47.9-.76,1.39-.85,1.54a8.05,8.05,0,0,0-.75,2,9.88,9.88,0,0,0-.25,2.1V73.23a1.75,1.75,0,0,1-.49,1.29,1.91,1.91,0,0,1-1.35.47h-9.67a1.7,1.7,0,0,1-1.77-1.63.38.38,0,0,1,0-.15Zm49-.07V31.59a5.85,5.85,0,0,1,1.85-4.44A6.07,6.07,0,0,1,329,25.41h29a1.83,1.83,0,0,1,1.85,1.79v7.09a1.51,1.51,0,0,1-.51,1.21A1.85,1.85,0,0,1,358,36H331.77a3.64,3.64,0,0,1,2.84,1.2,3.92,3.92,0,0,1,1.09,2.63v3a2.47,2.47,0,0,0,.54,1.49,1.87,1.87,0,0,0,1.59.71H353.3a1.82,1.82,0,0,1,1.85,1.78v6.45a1.83,1.83,0,0,1-1.82,1.83H331.77a3.74,3.74,0,0,1,2.77,1.14,3.51,3.51,0,0,1,1.14,2.58v3.34a2.32,2.32,0,0,0,.57,1.49,1.88,1.88,0,0,0,1.58.73h20.75a1.63,1.63,0,0,1,1.82,1.43,1.88,1.88,0,0,1,0,.41v7a1.65,1.65,0,0,1-.53,1.29,1.91,1.91,0,0,1-1.29.46h-34a1.82,1.82,0,0,1-1.78-1.77Zm86.7-47.84a1.47,1.47,0,0,1,1.07.43,1.62,1.62,0,0,1,.43,1.07,2.29,2.29,0,0,1-.07.64L396.58,72.74a2.34,2.34,0,0,1-.92,1.49,2.88,2.88,0,0,1-2,.65H382.31a2.56,2.56,0,0,1-1.93-.65,3.46,3.46,0,0,1-1.07-1.49L365,27.47l-.15-.65a1.66,1.66,0,0,1,.43-1.07,1.9,1.9,0,0,1,1.14-.42h9.24a3,3,0,0,1,1.78.56,3.34,3.34,0,0,1,.85,1.36l9.31,30.84c0,.14.11.21.35.21s.29-.07.29-.21l9.38-30.83a2.39,2.39,0,0,1,.85-1.36,3.07,3.07,0,0,1,1.78-.57Zm6.61,47.83V31.59A5.85,5.85,0,0,1,418,27.15a6.07,6.07,0,0,1,4.34-1.74h29a1.93,1.93,0,0,1,1.86,1.85v7a1.43,1.43,0,0,1-.57,1.21,1.76,1.76,0,0,1-1.29.5H425a3.64,3.64,0,0,1,2.81,1.2,3.87,3.87,0,0,1,1.1,2.66v3a2.37,2.37,0,0,0,.57,1.5,2,2,0,0,0,1.63.71h15.42a1.63,1.63,0,0,1,1.85,1.38,1.77,1.77,0,0,1,0,.46v6.4A1.63,1.63,0,0,1,447,55.14a1.85,1.85,0,0,1-.47,0H425a3.76,3.76,0,0,1,2.77,1.14,3.55,3.55,0,0,1,1.14,2.58V62.2a2.25,2.25,0,0,0,.6,1.49,2,2,0,0,0,1.6.71h20.75a1.8,1.8,0,0,1,1.29.54,1.71,1.71,0,0,1,.53,1.28v7a1.64,1.64,0,0,1-.56,1.29,2,2,0,0,1-1.29.49H417.9a1.71,1.71,0,0,1-1.78-1.63v-.18Zm45.63-.07V31.52a6.09,6.09,0,0,1,1.79-4.34A5.91,5.91,0,0,1,468,25.33h2.27a7.11,7.11,0,0,1,1.94.33,4.63,4.63,0,0,1,2.2,1.88q4.2,6.54,7.54,11.8c1.37,2.14,2.45,3.84,3.22,5.08s1.51,2.39,2.2,3.48,1.29,2,1.74,2.74.77,1.2.86,1.34a.47.47,0,0,0,.35.15.33.33,0,0,0,.36-.27.14.14,0,0,0,0-.09V31.52a5.88,5.88,0,0,1,.53-2.58A6.06,6.06,0,0,1,492.55,27a6.41,6.41,0,0,1,2-1.24,5.9,5.9,0,0,1,2.27-.46h4.62a1.5,1.5,0,0,1,1.21.49,1.9,1.9,0,0,1,.5,1.36V73a1.72,1.72,0,0,1-.5,1.29,1.44,1.44,0,0,1-1.21.57h-8.06A2.51,2.51,0,0,1,491,73.48q-4.26-6.49-7.68-11.7-2.13-3.14-3.34-5l-2.22-3.47L476,50.6c-.48-.74-.76-1.18-.86-1.29a.56.56,0,0,0-.35-.21c-.29,0-.43.11-.43.35V73.09a1.72,1.72,0,0,1-.5,1.29,1.9,1.9,0,0,1-1.35.46h-8.95a1.81,1.81,0,0,1-1.78-1.78Zm87.76-47.76a1.64,1.64,0,0,1,1.85,1.4,1.14,1.14,0,0,1,0,.45v7.89a1.6,1.6,0,0,1-.49,1.29,1.85,1.85,0,0,1-1.36.49H533.1A3.94,3.94,0,0,1,535.87,38a3.41,3.41,0,0,1,1.21,2.58V73.09a1.72,1.72,0,0,1-.5,1.29,1.88,1.88,0,0,1-1.34.46h-9.82a1.94,1.94,0,0,1-1.29-.49,1.63,1.63,0,0,1-.56-1.29v-34a2.06,2.06,0,0,0-.65-1.6,2.13,2.13,0,0,0-1.45-.6H511.15a1.88,1.88,0,0,1-1.35-.5,1.6,1.6,0,0,1-.49-1.29V31.48A5.61,5.61,0,0,1,511.24,27a6.33,6.33,0,0,1,4.27-1.67Z" transform="translate(-0.75 -0.42)"></path> <path class="cls-1" d="M118.5,73.16V31.59a5.81,5.81,0,0,1,1.85-4.44,6.07,6.07,0,0,1,4.34-1.74h29a1.83,1.83,0,0,1,1.85,1.79v7.09a1.54,1.54,0,0,1-.5,1.21,1.88,1.88,0,0,1-1.35.5H127.46a3.62,3.62,0,0,1,2.79,1.2,3.84,3.84,0,0,1,1.11,2.66v3a2.43,2.43,0,0,0,.54,1.49,1.87,1.87,0,0,0,1.57.69h15.47a1.8,1.8,0,0,1,1.85,1.76v6.47a1.81,1.81,0,0,1-.53,1.29,1.78,1.78,0,0,1-1.29.54H127.46a3.78,3.78,0,0,1,2.79,1.17,3.52,3.52,0,0,1,1.13,2.58v3.34a2.37,2.37,0,0,0,.57,1.5,1.93,1.93,0,0,0,1.52.69h20.78a1.62,1.62,0,0,1,1.84,1.38,1.24,1.24,0,0,1,0,.47v7a1.66,1.66,0,0,1-.52,1.29,2,2,0,0,1-1.29.46h-34a1.81,1.81,0,0,1-1.78-1.78Z" transform="translate(-0.75 -0.42)"></path> <path class="cls-1" d="M160.22,74.67a1.82,1.82,0,0,1-.36-1.71l16.49-45.35a2.84,2.84,0,0,1,2.84-2.06h11a2.85,2.85,0,0,1,2.85,2.06L209.54,73a1.75,1.75,0,0,1,.07.64,1.58,1.58,0,0,1-1.49,1.5H199a2.38,2.38,0,0,1-2.42-1.57l-3.69-10a40.69,40.69,0,0,1-5.16,1.64,48.38,48.38,0,0,1-5.08,1c-1.64.21-3.16.35-4.58.42s-2.66.11-3.7.11h-1.74a5.45,5.45,0,0,1-1.07-.08,2.9,2.9,0,0,1,2.17,1.39,3,3,0,0,1,.18,2.86l-1,2.7a2.38,2.38,0,0,1-2.42,1.57h-9.17A1.85,1.85,0,0,1,160.22,74.67Zm18.05-18.19c1.32-.1,2.7-.27,4.12-.51a37,37,0,0,0,3.87-.81,17.62,17.62,0,0,0,3.87-1.53L184.65,38l-6.38,18.46Z" transform="translate(-0.75 -0.42)"></path> <path class="cls-1" d="M255.52,60a13.07,13.07,0,0,1-2,7.35,15.17,15.17,0,0,1-5.12,4.83,23.57,23.57,0,0,1-7,2.63,35.46,35.46,0,0,1-7.47.82,44.67,44.67,0,0,1-5.16-.32,25.94,25.94,0,0,1-5.22-1.17,23,23,0,0,1-4.76-2.24A13.47,13.47,0,0,1,215,68.4a11.58,11.58,0,0,1-2.63-7,1.46,1.46,0,0,1,.43-1.06,2,2,0,0,1,1.14-.43h9.38a3.21,3.21,0,0,1,1.46.29,3.68,3.68,0,0,1,1.07,1,6.66,6.66,0,0,0,3.45,3.1A13.16,13.16,0,0,0,234,65a19.56,19.56,0,0,0,2.42-.18,11.46,11.46,0,0,0,2.58-.64A5.83,5.83,0,0,0,241,62.93a3.09,3.09,0,0,0,.85-2.28,3,3,0,0,0-1.51-2.74,14.79,14.79,0,0,0-3-1.39c-.75-.24-1.69-.5-2.8-.78s-2.41-.59-3.87-.93a53.22,53.22,0,0,1-6.35-1.62,19.86,19.86,0,0,1-5.44-2.69,13.26,13.26,0,0,1-3.83-4.3,13,13,0,0,1-1.46-6.45,12.76,12.76,0,0,1,1.83-6.92,14.9,14.9,0,0,1,4.66-4.69,20.33,20.33,0,0,1,6.35-2.63,30.63,30.63,0,0,1,7-.81,29.16,29.16,0,0,1,4.94.42,23.74,23.74,0,0,1,4.88,1.36,20.36,20.36,0,0,1,4.36,2.34,16.6,16.6,0,0,1,3.59,3.41,11.33,11.33,0,0,1,2.58,6.33,2,2,0,0,1-.43,1.13,1.45,1.45,0,0,1-1.06.43h-9.92A2.75,2.75,0,0,1,240,38.83a3.52,3.52,0,0,0-1-1.67,5.36,5.36,0,0,0-1.67-1.07,9.3,9.3,0,0,0-1.93-.57,11.47,11.47,0,0,0-1.94-.17,15.57,15.57,0,0,0-2.16.14,5.86,5.86,0,0,0-2,.6,4.2,4.2,0,0,0-1.49,1.29,3.45,3.45,0,0,0-.6,2.09,3.67,3.67,0,0,0,2.13,3.27,29.59,29.59,0,0,0,7.91,2.35A66.53,66.53,0,0,1,244,46.58a22.13,22.13,0,0,1,5.87,2.58A12,12,0,0,1,255.52,60Z" transform="translate(-0.75 -0.42)"></path> <path class="cls-1" d="M273.78,73.23V60.58a9.92,9.92,0,0,0-.28-2.3,8.22,8.22,0,0,0-.72-1.94L257.43,27.75a1.52,1.52,0,0,1-.18-.78,1.42,1.42,0,0,1,.46-1,1.45,1.45,0,0,1,1-.46h9.31a3.25,3.25,0,0,1,1.53.39,2.13,2.13,0,0,1,1,1.18c1.72,3.07,3.26,5.85,4.62,8.31.8,1.52,1.45,2.71,1.93,3.59s.95,1.69,1.35,2.45.76,1.39,1.07,1.94.49.83.53.92a.44.44,0,0,0,.36.22.29.29,0,0,0,.28-.22l.54-1,1.1-2c.45-.8,1-1.73,1.53-2.76l1.73-3.14q2.06-3.72,4.62-8.32a2.86,2.86,0,0,1,2.57-1.57h9.31A1.64,1.64,0,0,1,303.66,27a1.55,1.55,0,0,1-.21.78q-4.15,7.68-7.52,13.79-2,3.76-3.16,5.93c-.79,1.45-1.51,2.8-2.18,4.05l-1.7,3.22c-.47.9-.76,1.39-.85,1.54a8.05,8.05,0,0,0-.75,2,9.88,9.88,0,0,0-.25,2.1V73.23a1.75,1.75,0,0,1-.49,1.29,1.91,1.91,0,0,1-1.35.47h-9.67a1.7,1.7,0,0,1-1.77-1.63.38.38,0,0,1,0-.15Z" transform="translate(-0.75 -0.42)"></path> <path class="cls-1" d="M322.81,73.16V31.59a5.85,5.85,0,0,1,1.85-4.44A6.07,6.07,0,0,1,329,25.41h29a1.83,1.83,0,0,1,1.85,1.79v7.09a1.51,1.51,0,0,1-.51,1.21A1.85,1.85,0,0,1,358,36H331.77a3.64,3.64,0,0,1,2.84,1.2,3.81,3.81,0,0,1,1.09,2.63v3a2.47,2.47,0,0,0,.54,1.49,1.87,1.87,0,0,0,1.59.71H353.3a1.82,1.82,0,0,1,1.85,1.78v6.45a1.83,1.83,0,0,1-1.82,1.83H331.77a3.74,3.74,0,0,1,2.77,1.14,3.51,3.51,0,0,1,1.14,2.58v3.34a2.32,2.32,0,0,0,.57,1.49,1.88,1.88,0,0,0,1.58.73h20.75a1.63,1.63,0,0,1,1.82,1.43,1.88,1.88,0,0,1,0,.41v7a1.65,1.65,0,0,1-.53,1.29,1.91,1.91,0,0,1-1.29.46h-34a1.82,1.82,0,0,1-1.78-1.77Z" transform="translate(-0.75 -0.42)"></path> <path class="cls-1" d="M409.51,25.33a1.47,1.47,0,0,1,1.07.43,1.62,1.62,0,0,1,.43,1.07,2.29,2.29,0,0,1-.07.64L396.58,72.74a2.34,2.34,0,0,1-.92,1.49,2.88,2.88,0,0,1-2,.65H382.31a2.56,2.56,0,0,1-1.93-.65,3.46,3.46,0,0,1-1.07-1.49L365,27.47l-.15-.65a1.66,1.66,0,0,1,.43-1.07,1.9,1.9,0,0,1,1.14-.42h9.24a3,3,0,0,1,1.78.56,3.34,3.34,0,0,1,.85,1.36l9.31,30.84c0,.14.11.21.35.21s.29-.07.29-.21l9.38-30.83a2.39,2.39,0,0,1,.85-1.36,3.07,3.07,0,0,1,1.78-.57Z" transform="translate(-0.75 -0.42)"></path> <path class="cls-1" d="M416.13,73.16V31.59A5.84,5.84,0,0,1,418,27.15a6.07,6.07,0,0,1,4.34-1.74h29a1.93,1.93,0,0,1,1.86,1.85v7a1.43,1.43,0,0,1-.57,1.21,1.76,1.76,0,0,1-1.29.5H425a3.64,3.64,0,0,1,2.81,1.2,3.87,3.87,0,0,1,1.1,2.66v3a2.37,2.37,0,0,0,.57,1.5,2,2,0,0,0,1.63.71h15.42a1.63,1.63,0,0,1,1.85,1.38,1.77,1.77,0,0,1,0,.46v6.4A1.63,1.63,0,0,1,447,55.14a1.85,1.85,0,0,1-.47,0H425a3.76,3.76,0,0,1,2.77,1.14,3.55,3.55,0,0,1,1.14,2.58V62.2a2.25,2.25,0,0,0,.6,1.49,2,2,0,0,0,1.6.71h20.75a1.8,1.8,0,0,1,1.29.54,1.71,1.71,0,0,1,.53,1.28v7a1.64,1.64,0,0,1-.56,1.29,2,2,0,0,1-1.29.49H417.9a1.71,1.71,0,0,1-1.78-1.63v-.18Z" transform="translate(-0.75 -0.42)"></path> <path class="cls-1" d="M461.75,73.09V31.52a6.09,6.09,0,0,1,1.79-4.34A5.91,5.91,0,0,1,468,25.33h2.27a7.11,7.11,0,0,1,1.94.33,4.63,4.63,0,0,1,2.2,1.88q4.2,6.54,7.54,11.8c1.37,2.14,2.45,3.84,3.22,5.08s1.51,2.39,2.2,3.48,1.29,2,1.74,2.74.77,1.2.86,1.34a.47.47,0,0,0,.35.15.33.33,0,0,0,.36-.27.14.14,0,0,0,0-.09V31.52a5.88,5.88,0,0,1,.53-2.58A6.06,6.06,0,0,1,492.55,27a6.41,6.41,0,0,1,2-1.24,5.9,5.9,0,0,1,2.27-.46h4.62a1.5,1.5,0,0,1,1.21.49,1.9,1.9,0,0,1,.5,1.36V73a1.72,1.72,0,0,1-.5,1.29,1.44,1.44,0,0,1-1.21.57h-8.06A2.51,2.51,0,0,1,491,73.48q-4.26-6.49-7.68-11.7-2.13-3.14-3.34-5l-2.22-3.47L476,50.6c-.48-.74-.76-1.18-.86-1.29a.56.56,0,0,0-.35-.21c-.29,0-.43.11-.43.35V73.09a1.72,1.72,0,0,1-.5,1.29,1.9,1.9,0,0,1-1.35.46h-8.95a1.81,1.81,0,0,1-1.78-1.78Z" transform="translate(-0.75 -0.42)"></path> <path class="cls-1" d="M549.51,25.33a1.64,1.64,0,0,1,1.85,1.4,1.14,1.14,0,0,1,0,.45v7.89a1.6,1.6,0,0,1-.49,1.29,1.85,1.85,0,0,1-1.36.49H533.1A3.94,3.94,0,0,1,535.87,38a3.41,3.41,0,0,1,1.21,2.58V73.09a1.72,1.72,0,0,1-.5,1.29,1.88,1.88,0,0,1-1.34.46h-9.82a1.94,1.94,0,0,1-1.29-.49,1.63,1.63,0,0,1-.56-1.29v-34a2.06,2.06,0,0,0-.65-1.6,2.13,2.13,0,0,0-1.45-.6H511.15a1.88,1.88,0,0,1-1.35-.5,1.6,1.6,0,0,1-.49-1.29V31.48A5.61,5.61,0,0,1,511.24,27a6.33,6.33,0,0,1,4.27-1.67Z" transform="translate(-0.75 -0.42)"></path> </g> </g> <g id="Фото"> <g id="Слой_1-2-2" data-name="Слой 1-2"> <polygon class="cls-2" points="48.22 2.31 68.73 14.15 89.23 25.99 89.23 49.66 89.23 73.34 68.73 85.18 48.22 97.02 27.72 85.18 7.21 73.34 7.21 49.66 7.21 25.99 27.72 14.15 48.22 2.31"></polygon> <polygon class="cls-3" points="71.9 8.65 83.74 29.16 95.58 49.66 83.74 70.17 71.9 90.67 48.22 90.67 24.55 90.67 12.71 70.17 0.87 49.66 12.71 29.16 24.55 8.65 48.22 8.65 71.9 8.65"></polygon> <path class="cls-4" d="M26.82,72.85V27a6.48,6.48,0,0,1,2-4.9,6.74,6.74,0,0,1,4.79-1.92h32a2,2,0,0,1,2,2v7.77a1.65,1.65,0,0,1-.55,1.33,2.09,2.09,0,0,1-1.49.55H36.71a4,4,0,0,1,3.09,1.33A4.17,4.17,0,0,1,41,36.08v3.3a2.79,2.79,0,0,0,.59,1.68,2,2,0,0,0,1.76.79h17.1a1.84,1.84,0,0,1,1.45.59,2,2,0,0,1,.59,1.45V51a2,2,0,0,1-2,2H36.71a4,4,0,0,1,3,1.25A3.83,3.83,0,0,1,41,57v3.76a2.72,2.72,0,0,0,.64,1.62,2.1,2.1,0,0,0,1.72.77h22.9a1.79,1.79,0,0,1,2,1.57h0a1.48,1.48,0,0,1,0,.42v7.69a1.78,1.78,0,0,1-.58,1.45,2.11,2.11,0,0,1-1.46.51H28.78a2,2,0,0,1-2-2Z" transform="translate(-0.75 -0.42)"></path> <path class="cls-5" d="M29.61,75.46V29.57a6.48,6.48,0,0,1,2-4.9,6.7,6.7,0,0,1,4.83-1.94h32a2,2,0,0,1,2,2v7.76a1.68,1.68,0,0,1-.55,1.34,2,2,0,0,1-1.49.55H39.5a4,4,0,0,1,3.11,1.35,4.14,4.14,0,0,1,1.22,2.9v3.3a2.83,2.83,0,0,0,.59,1.64,2,2,0,0,0,1.76.79h17.1a1.84,1.84,0,0,1,1.45.59,2,2,0,0,1,.59,1.45v7.06a2,2,0,0,1-.59,1.45,2.06,2.06,0,0,1-1.45.59H39.5a4.08,4.08,0,0,1,3.11,1.29,3.85,3.85,0,0,1,1.25,2.82V63.3A2.73,2.73,0,0,0,44.49,65a2.18,2.18,0,0,0,1.72.78H69.07a1.78,1.78,0,0,1,2,1.55v0a1.55,1.55,0,0,1,0,.43v7.69a1.81,1.81,0,0,1-.58,1.45,2.2,2.2,0,0,1-1.45.51H31.61a2,2,0,0,1-2-2Z" transform="translate(-0.75 -0.42)"></path> <polygon class="cls-6" points="48.22 2.31 68.73 14.15 89.23 25.99 89.23 49.66 89.23 73.34 68.73 85.18 48.22 97.02 27.72 85.18 7.21 73.34 7.21 49.66 7.21 25.99 27.72 14.15 48.22 2.31"></polygon> <polygon class="cls-7" points="71.9 8.65 83.74 29.16 95.58 49.66 83.74 70.17 71.9 90.67 48.22 90.67 24.55 90.67 12.71 70.17 0.87 49.66 12.71 29.16 24.55 8.65 48.22 8.65 71.9 8.65"></polygon> <path class="cls-8" d="M26.82,72.85V27a6.48,6.48,0,0,1,2-4.9,6.74,6.74,0,0,1,4.79-1.92h32a2,2,0,0,1,2,2v7.77a1.65,1.65,0,0,1-.55,1.33,2.09,2.09,0,0,1-1.49.55H36.71a4,4,0,0,1,3.09,1.33A4.17,4.17,0,0,1,41,36.08v3.3a2.79,2.79,0,0,0,.59,1.68,2,2,0,0,0,1.76.79h17.1a1.84,1.84,0,0,1,1.45.59,2,2,0,0,1,.59,1.45V51a2,2,0,0,1-2,2H36.71a4,4,0,0,1,3,1.25A3.83,3.83,0,0,1,41,57v3.76a2.72,2.72,0,0,0,.64,1.62,2.1,2.1,0,0,0,1.72.77h22.9a1.79,1.79,0,0,1,2,1.57h0a1.48,1.48,0,0,1,0,.42v7.69a1.78,1.78,0,0,1-.58,1.45,2.11,2.11,0,0,1-1.46.51H28.78a2,2,0,0,1-2-2Z" transform="translate(-0.75 -0.42)"></path> <path class="cls-9" d="M29.61,75.46V29.57a6.48,6.48,0,0,1,2-4.9,6.7,6.7,0,0,1,4.83-1.94h32a2,2,0,0,1,2,2v7.76a1.68,1.68,0,0,1-.55,1.34,2,2,0,0,1-1.49.55H39.5a4,4,0,0,1,3.11,1.35,4.14,4.14,0,0,1,1.22,2.9v3.3a2.83,2.83,0,0,0,.59,1.64,2,2,0,0,0,1.76.79h17.1a1.84,1.84,0,0,1,1.45.59,2,2,0,0,1,.59,1.45v7.06a2,2,0,0,1-.59,1.45,2.06,2.06,0,0,1-1.45.59H39.5a4.08,4.08,0,0,1,3.11,1.29,3.85,3.85,0,0,1,1.25,2.82V63.3A2.73,2.73,0,0,0,44.49,65a2.18,2.18,0,0,0,1.72.78H69.07a1.78,1.78,0,0,1,2,1.55v0a1.55,1.55,0,0,1,0,.43v7.69a1.81,1.81,0,0,1-.58,1.45,2.2,2.2,0,0,1-1.45.51H31.61a2,2,0,0,1-2-2Z" transform="translate(-0.75 -0.42)"></path> </g> </g> </svg> 